# xmcd CD database file generated by Grip 3.3.1
# 
# Track frame offsets:
#       182
#       28497
#       77667
#       121777
# 
# Disc length: 2055 seconds
# 
# Revision: 1
# Processed by: cddbd v1.5.2PL0 Copyright (c) Steve Scherf et al.
# Submitted via: Grip 3.3.1
# 
DISCID=2a080504
DTITLE=Luiz Gonzaga e Carmélia Alves - Ao vivo no Seis e Meia
DYEAR=1977
DGENRE=Other
TTITLE0=Reis do Baião - Trepa no coqueiro - Qui nem jiló
TTITLE1=Boiadeiro - Vozes da seca - Lorota boa
TTITLE2=Asa Branca - A volta da Asa Branca - Légua tirana
TTITLE3=Sabiá lá na gaiola - Cabeça inchada - Forró do Mané Vito
EXTD=
EXTT0=
EXTT1=
EXTT2=
EXTT3=
PLAYORDER=
